HIERARCHY
ROOT Hips
{
	OFFSET 0.00000 0.00000 0.00000
	CHANNELS 6 Xposition Yposition Zposition Yrotation Zrotation Xrotation 
	JOINT Lumbar
	{
		OFFSET 0 0 0
		CHANNELS 3 Zrotation Xrotation Yrotation
		JOINT Neck
		{
			OFFSET 0.00 0.2701 0.00
			CHANNELS 3 Zrotation Xrotation Yrotation
			End Site
			{
				OFFSET 0.00 0.1379 0.00
			}
		}
		JOINT RightShoulder
		{
			OFFSET 0.0119 0.2289 0.1181
			CHANNELS 3 Zrotation Xrotation Yrotation
			JOINT RightElbow
			{
				OFFSET 0.00 -0.1475 0.00
				CHANNELS 2 Zrotation Yrotation
				JOINT RightWrist
				{
					OFFSET 0.00 -0.1605 0.00
					CHANNELS 2 Zrotation Xrotation
					End Site
					{
						OFFSET 0.0040 -0.1068 0.0006
					}
				}
			}
		}
		JOINT LeftShoulder
		{
			OFFSET 0.0119 0.2289 -0.1181
			CHANNELS 3 Zrotation Xrotation Yrotation
			JOINT LeftElbow
			{
				OFFSET 0.00 -0.1475 0.00
				CHANNELS 2 Zrotation Yrotation
				JOINT LeftWrist
				{
					OFFSET 0.00 -0.1605 0.00
					CHANNELS 2 Zrotation Xrotation
					End Site
					{
						OFFSET 0.0040 -0.1068 -0.0006
					}
				}
			}
		}
	}
	JOINT RightHip
	{
		OFFSET 0.0316 -0.0424 0.0458
		CHANNELS 3 Zrotation Xrotation Yrotation
		JOINT RightKnee
		{
			OFFSET 0.00 -0.2438 0.00
			CHANNELS 1 Zrotation
			JOINT RightAnkle
			{
				OFFSET 0.00 -0.2449 0.00
				CHANNELS 3 Zrotation Xrotation Yrotation
				End Site
				{
					OFFSET 0.1237 -0.0542 0.0051
				}
			}
		}
	}
	JOINT LeftHip
	{
		OFFSET 0.0316 -0.0424 -0.0458
		CHANNELS 3 Zrotation Xrotation Yrotation
		JOINT LeftKnee
		{
			OFFSET 0.00 -0.2438 0.00
			CHANNELS 1 Zrotation
			JOINT LeftAnkle
			{
				OFFSET 0.00 -0.2449 0.00
				CHANNELS 3 Zrotation Xrotation Yrotation
				End Site
				{
					OFFSET 0.1237 -0.0542 -0.0051
				}
			}
		}
	}
}
MOTION
Frames: 25
Frame Time: 0.02
-0.0009 -0.00053 0.0005 14.32033 -22.04225 -5.15997 45.48104 3.60286 -5.25198 -5.3417 -8.64932 -0.37199 -25.05931 -11.50613 2.56263 42.21347 90.24676 6.78031 0.56281 -27.5305 12.34115 -3.68371 38.49333 -95.27958 12.62007 -0.36168 34.42492 -1.52759 -7.64235 -21.05446 -7.79106 -3.20855 -3.85413 36.74609 10.6456 9.39236 -27.04841 -8.29698 3.29145 3.90986
-0.00075 -0.0005 0.00028 14.2877 -22.04544 -5.15829 45.47328 3.60332 -5.27464 -5.37219 -8.63195 -0.37378 -25.11721 -11.49971 2.41411 42.0692 90.25443 6.77334 0.55718 -27.60468 12.37764 -3.6438 38.49776 -95.24396 12.63425 -0.36285 34.39555 -1.60563 -7.98456 -21.04363 -7.77595 -3.17873 -3.83715 36.72079 10.57598 9.19361 -27.03988 -8.31218 3.30883 3.92211
-0.0006 -0.00048 7e-05 14.25512 -22.04865 -5.15661 45.46555 3.60379 -5.29724 -5.40263 -8.61459 -0.37557 -25.17498 -11.49328 2.26591 41.92514 90.2621 6.76644 0.55156 -27.67858 12.41408 -3.6042 38.5025 -95.20837 12.64836 -0.36397 34.36627 -1.68343 -8.32563 -21.03282 -7.76088 -3.149 -3.82022 36.69555 10.50654 8.99549 -27.03136 -8.32735 3.32617 3.93432
-0.00045 -0.00045 -0.00014 14.22258 -22.05184 -5.15493 45.4578 3.60426 -5.31983 -5.43303 -8.59727 -0.37736 -25.23271 -11.48687 2.11782 41.78128 90.26974 6.7595 0.54594 -27.75251 12.45044 -3.56441 38.50693 -95.17295 12.66254 -0.36515 34.33699 -1.76122 -8.66676 -21.02203 -7.74582 -3.11927 -3.80329 36.67033 10.43713 8.79735 -27.02285 -8.34251 3.3435 3.94653
-0.0003 -0.00043 -0.00035 14.19001 -22.05502 -5.15327 45.45003 3.60472 -5.34249 -5.46349 -8.57997 -0.37914 -25.29056 -11.48051 1.96947 41.63729 90.27741 6.7525 0.54032 -27.82677 12.48687 -3.52431 38.51101 -95.13725 12.67665 -0.36633 34.30761 -1.83924 -9.0091 -21.01121 -7.73071 -3.08946 -3.7863 36.64507 10.36754 8.59859 -27.01433 -8.3577 3.36086 3.95877
-0.00015 -0.00041 -0.00056 14.1574 -22.05828 -5.15156 45.4424 3.60523 -5.36495 -5.4939 -8.56247 -0.38093 -25.34814 -11.47392 1.82161 41.49311 90.28509 6.74581 0.5347 -27.89989 12.52336 -3.48581 38.51718 -95.10172 12.6907 -0.36731 34.27852 -1.91659 -9.3475 -21.00043 -7.71574 -3.05988 -3.7695 36.61985 10.29842 8.40184 -27.00582 -8.37282 3.37816 3.97093
-0 -0.00038 -0.00077 14.12493 -22.06138 -5.14993 45.43446 3.60562 -5.38779 -5.52432 -8.54539 -0.38271 -25.40621 -11.46779 1.67291 41.34947 90.29268 6.73848 0.52907 -27.97517 12.55956 -3.44395 38.51892 -95.06664 12.70522 -0.36884 34.24889 -1.99519 -9.69337 -20.98958 -7.7005 -3.02988 -3.75236 36.59457 10.22843 8.20122 -26.99729 -8.38807 3.39555 3.98324
0.00015 -0.00036 -0.00099 14.0923 -22.06462 -5.14824 45.42686 3.60614 -5.41028 -5.55484 -8.52792 -0.3845 -25.46381 -11.46124 1.525 41.20534 90.30047 6.73177 0.52348 -28.04857 12.59625 -3.40552 38.52515 -95.02981 12.71865 -0.36958 34.21977 -2.07265 -10.03249 -20.9788 -7.68551 -3.00026 -3.73551 36.56935 10.15927 8.00424 -26.98879 -8.40319 3.41286 3.99541
0.0003 -0.00033 -0.0012 14.05956 -22.06805 -5.14643 45.41949 3.60676 -5.43234 -5.58509 -8.50998 -0.3863 -25.52097 -11.45416 1.3779 41.06046 90.30805 6.72571 0.51781 -28.11926 12.6327 -3.36998 38.53531 -94.99609 12.73332 -0.37045 34.19123 -2.1487 -10.36292 -20.96809 -7.67084 -2.97111 -3.71905 36.5442 10.09096 7.81134 -26.98029 -8.41819 3.4301 4.00742
0.00045 -0.00031 -0.00141 14.0277 -22.07044 -5.14519 45.41021 3.60662 -5.45685 -5.6157 -8.49473 -0.38804 -25.58103 -11.45008 1.22566 40.91943 90.31544 6.71557 0.51222 -28.20427 12.66799 -3.31388 38.51817 -94.96026 12.74858 -0.37386 34.15922 -2.23281 -10.74203 -20.95694 -7.65438 -2.93928 -3.70045 36.51864 10.01728 7.59385 -26.9717 -8.43402 3.44782 4.02039
0.0006 -0.00028 -0.00162 13.99384 -22.075 -5.14281 45.40532 3.6082 -5.47622 -5.6463 -8.47385 -0.38991 -25.63471 -11.43969 1.08462 40.77063 90.32414 6.71424 0.5067 -28.25991 12.70735 -3.30367 38.56161 -94.91879 12.7577 -0.36983 34.13458 -2.29996 -11.01928 -20.94674 -7.64168 -2.9131 -3.68634 36.49396 9.95523 7.42899 -26.96335 -8.44801 3.46446 4.03129
0.00074 -0.00026 -0.00184 13.95554 -22.08566 -5.1366 45.40994 3.61356 -5.48111 -5.67119 -8.43722 -0.39211 -25.67273 -11.41157 0.97078 40.59717 90.33459 6.73687 0.50074 -28.22746 12.7448 -3.39949 38.74927 -94.94971 12.79236 -0.36342 34.13011 -2.31959 -11.00732 -20.93883 -7.63943 -2.90246 -3.68491 36.4715 9.92297 7.40362 -26.95516 -8.45764 3.47882 4.03682
0.00089 -0.00023 -0.00205 13.91501 -22.09846 -5.12933 45.41961 3.62085 -5.48086 -5.69745 -8.39515 -0.39445 -25.7039 -11.37702 0.86832 40.41646 90.35057 6.76914 0.4958 -28.1671 12.78884 -3.54474 39.0022 -94.96232 12.81469 -0.34702 34.13306 -2.32237 -10.89481 -20.93193 -7.64093 -2.89747 -3.68792 36.44997 9.90272 7.43194 -26.94731 -8.46532 3.49198 4.04023
0.00103 -0.0002 -0.00227 13.87483 -22.1102 -5.12302 45.42844 3.62782 -5.48326 -5.72638 -8.35559 -0.39675 -25.73712 -11.34593 0.76361 40.24136 90.3603 6.79621 0.48975 -28.12415 12.83832 -3.68081 39.23922 -94.92127 12.81277 -0.32238 34.13262 -2.33346 -10.83476 -20.92472 -7.64064 -2.8899 -3.68866 36.42816 9.87842 7.43904 -26.93964 -8.47347 3.50522 4.04441
0.00117 -0.00017 -0.00249 13.83754 -22.12236 -5.11483 45.43048 3.63233 -5.48447 -5.74007 -8.31523 -0.39892 -25.77522 -11.31333 0.64868 40.05678 90.36991 6.82371 0.48303 -28.06038 12.85191 -3.76231 39.41691 -95.12686 12.92982 -0.3483 34.13224 -2.3417 -10.74625 -20.91682 -7.64074 -2.88246 -3.69048 36.40577 9.84846 7.43315 -26.93058 -8.48336 3.52037 4.04938
0.00131 -0.00014 -0.00269 13.79357 -22.13411 -5.11013 45.44867 3.64256 -5.48673 -5.78754 -8.27604 -0.40142 -25.80099 -11.28141 0.55511 39.88985 90.40104 6.85641 0.48222 -28.03439 12.94219 -3.9674 39.73541 -94.8332 12.80497 -0.27074 34.13354 -2.35198 -10.69282 -20.91068 -7.64089 -2.87602 -3.69108 36.38476 9.83284 7.46664 -26.9245 -8.48918 3.53132 4.05223
0.00146 -0.0001 -0.00287 13.73286 -22.14462 -5.1169 45.50347 3.66704 -5.49496 -5.91357 -8.2346 -0.40471 -25.79901 -11.26167 0.54171 39.77681 90.30609 6.86593 0.45809 -28.1111 13.23935 -4.51654 40.41203 -93.00045 11.93797 0.12696 34.13722 -2.37124 -10.7645 -20.90837 -7.64061 -2.87146 -3.68729 36.36769 9.85629 7.59883 -26.92646 -8.48392 3.53054 4.04934
0.0016 -7e-05 -0.00303 13.66534 -22.15456 -5.12689 45.57567 3.69744 -5.50405 -6.07645 -8.19585 -0.40835 -25.78404 -11.24169 0.54608 39.6812 90.25773 6.88507 0.44521 -28.22857 13.61411 -5.18527 41.23119 -90.69425 10.84123 0.62215 34.14238 -2.39336 -10.87447 -20.90794 -7.6402 -2.86761 -3.68209 36.35188 9.89323 7.76814 -26.93143 -8.47468 3.52567 4.04445
0.00175 -3e-05 -0.0032 13.60006 -22.16453 -5.1344 45.64428 3.72578 -5.51161 -6.23159 -8.16025 -0.41188 -25.77193 -11.21548 0.5251 39.57531 90.32054 6.92523 0.45557 -28.33272 13.95548 -5.78984 41.99429 -88.71608 9.90174 1.04783 34.14721 -2.41457 -10.96435 -20.90716 -7.63962 -2.86312 -3.67746 36.33524 9.92248 7.91842 -26.9351 -8.46745 3.52299 4.04073
0.00189 1e-05 -0.00337 13.53802 -22.17563 -5.14627 45.69463 3.75139 -5.52396 -6.34782 -8.10576 -0.4152 -25.77222 -11.21383 0.57271 39.47893 89.86279 6.86613 0.35454 -28.41321 14.28906 -6.43874 42.7214 -86.2708 8.74338 1.57794 34.151 -2.43323 -11.06141 -20.90428 -7.64013 -2.86021 -3.6733 36.31975 9.95901 8.07988 -26.9385 -8.45931 3.51888 4.03582
0.00204 4e-05 -0.00354 13.46802 -22.18409 -5.14973 45.78735 3.78423 -5.52638 -6.55499 -8.09166 -0.41904 -25.74395 -11.16352 0.48748 39.36722 90.45265 7.0064 0.4778 -28.55391 14.6573 -7.02159 43.5583 -84.67368 7.98064 1.91649 34.15702 -2.45852 -11.15475 -20.90619 -7.63828 -2.85402 -3.66774 36.3021 9.9831 8.22597 -26.94317 -8.45213 3.51677 4.03293
0.00224 7e-05 -0.00372 13.37473 -22.18648 -5.13008 45.99043 3.83428 -5.503 -6.99468 -8.18555 -0.42431 -25.63797 -10.9577 -0.021 39.2071 94.34138 7.77845 1.30841 -28.84346 15.10203 -7.40591 44.64801 -85.64325 8.41757 1.67689 34.17056 -2.49792 -11.22174 -20.92105 -7.63014 -2.83917 -3.65883 36.27881 9.9721 8.32193 -26.9507 -8.44866 3.52143 4.03623
0.00244 9e-05 -0.0039 13.27437 -22.18603 -5.10169 46.23592 3.89161 -5.46922 -7.52649 -8.32054 -0.43009 -25.50431 -10.70673 -0.65475 39.03151 99.21083 8.7364 2.34867 -29.19377 15.57926 -7.7176 45.846 -87.46286 9.25136 1.24574 34.18592 -2.5447 -11.28542 -20.94063 -7.61961 -2.82087 -3.64851 36.25322 9.94754 8.40074 -26.95937 -8.44626 3.52821 4.0416
0.00264 0.00011 -0.0041 13.17904 -22.18615 -5.07671 46.46362 3.94647 -5.43914 -8.02234 -8.43868 -0.4356 -25.38438 -10.49062 -1.19628 38.86398 103.34989 9.55279 3.23176 -29.52125 16.04132 -8.0528 47.00404 -88.82162 9.8697 0.91897 34.19928 -2.59045 -11.3555 -20.95794 -7.61002 -2.80371 -3.6387 36.22823 9.92744 8.48608 -26.96745 -8.44331 3.53387 4.04595
0.00285 0.00013 -0.00425 13.07524 -22.18925 -5.05418 46.68593 3.99806 -5.41375 -8.49424 -8.54932 -0.44129 -25.25826 -10.21475 -1.8836 38.69192 108.66791 10.60536 4.37125 -29.82978 16.50654 -8.42951 48.12736 -90.47715 10.62707 0.52283 34.2177 -2.62626 -11.40618 -20.97585 -7.60097 -2.7883 -3.62939 36.205 9.91508 8.57758 -26.97595 -8.44056 3.54003 4.05062
